<svg width="23" height="27" viewBox="0 0 23 27" fill="none" xmlns="http://www.w3.org/2000/svg">
<path d="M1 6H14V19H4C2.34315 19 1 17.6569 1 16V6Z" fill="white"/>
<path fill-rule="evenodd" clip-rule="evenodd" d="M8.93003 1.70327C7.81418 0.765578 6.18582 0.765578 5.06997 1.70327C4.39166 2.27328 4 3.11398 4 4V5.42829H10V4C10 3.11398 9.60835 2.27328 8.93003 1.70327ZM3 9.42829V6.42829H1V15.5012C1 16.7993 1.7334 17.986 2.89443 18.5665C3.37029 18.8044 3.89502 18.9283 4.42705 18.9283H8.02146C8.00724 19.117 8 19.3077 8 19.5C8 19.6437 8.00404 19.7865 8.01202 19.9283H4.42705C3.73977 19.9283 3.06193 19.7683 2.44721 19.4609C0.947399 18.711 0 17.1781 0 15.5012V5.92829V5.42829H0.5H3V4C3 2.81864 3.52221 1.6977 4.42663 0.937687C5.91443 -0.312562 8.08558 -0.312562 9.57337 0.937687C10.4778 1.6977 11 2.81864 11 4V5.42829H14H14.5V5.92829V12.0661C14.1589 12.1115 13.825 12.1799 13.5 12.2696V6.42829H11V9.42829H10V6.42829H4V9.42829H3Z" fill="black"/>
<circle cx="15.5" cy="19.5" r="7.14286" fill="white" stroke="black" stroke-width="0.714286"/>
<path d="M16.5669 16.31V23H15.6469V17.29L14.0869 18.24L13.6869 17.59L15.7569 16.31H16.5669Z" fill="black"/>
</svg>
