<svg width="15" height="15" viewBox="0 0 15 15" fill="none" xmlns="http://www.w3.org/2000/svg">
<path fill-rule="evenodd" clip-rule="evenodd" d="M1.08049 5.5C1.08049 7.98528 3.09521 10 5.58049 10C8.06577 10 10.0805 7.98528 10.0805 5.5C10.0805 3.01472 8.06577 1 5.58049 1C3.09521 1 1.08049 3.01472 1.08049 5.5ZM0.0804913 5.5C0.0804913 8.53757 2.54293 11 5.58049 11C6.96633 11 8.23246 10.4874 9.19965 9.64157L14.0808 14.5227L15 13.6034L10.0719 8.6753C10.7071 7.77835 11.0805 6.68278 11.0805 5.5C11.0805 2.46243 8.61806 0 5.58049 0C2.54293 0 0.0804913 2.46243 0.0804913 5.5Z" fill="black"/>
</svg>
